<?xml version="1.0" encoding="UTF-8"?>
<svg width="117px" height="35px" viewBox="0 0 117 35" version="1.1" xmlns="http://www.w3.org/2000/svg" xmlns:xlink="http://www.w3.org/1999/xlink">
    <!-- Generator: Sketch 53.2 (72643) - https://sketchapp.com -->
    <title>Group 3</title>
    <desc>Created with Sketch.</desc>
    <defs>
        <polygon id="path-1" points="0.0100819753 32.9976585 2.01639506 32.9976585 2.01639506 14.6144634 4.14201152 13.3063171 4.14201152 32.9976585 4.14201152 33.1180244 9.35159221 33.1180244 9.35159221 16.5208537 6.90167221 15.0068049 6.90167221 6.30358537 0.0100819753 0.00563414634"></polygon>
        <linearGradient x1="-0.0726517777%" y1="49.9930492%" x2="99.978727%" y2="49.9930492%" id="linearGradient-3">
            <stop stop-color="#80B7E4" offset="0%"></stop>
            <stop stop-color="#7CB4E2" offset="25.86%"></stop>
            <stop stop-color="#6FACDD" offset="53.02%"></stop>
            <stop stop-color="#5A9ED5" offset="80.68%"></stop>
            <stop stop-color="#4791CE" offset="100%"></stop>
        </linearGradient>
        <polygon id="path-4" points="0.135762963 15.1911951 3.31960494 15.1911951 3.31960494 1.25385366 3.31502222 1.24873171 0.135762963 0.135219512"></polygon>
        <linearGradient x1="0.0630944584%" y1="49.9902888%" x2="100.023959%" y2="49.9902888%" id="linearGradient-6">
            <stop stop-color="#FCC30E" offset="0%"></stop>
            <stop stop-color="#DF771C" offset="100%"></stop>
        </linearGradient>
        <linearGradient x1="72.3653913%" y1="84.4517143%" x2="73.6536087%" y2="84.4517143%" id="linearGradient-7">
            <stop stop-color="#858585" offset="0%"></stop>
            <stop stop-color="#000000" offset="100%"></stop>
        </linearGradient>
        <linearGradient x1="0.0134998313%" y1="50.0013257%" x2="100.010125%" y2="50.0013257%" id="linearGradient-8">
            <stop stop-color="#858585" offset="0%"></stop>
            <stop stop-color="#000000" offset="100%"></stop>
        </linearGradient>
        <polygon id="path-9" points="0.0214814815 7.51519073 1.61272222 7.51519073 1.61272222 0.362549822 0.0214814815 0.094467207"></polygon>
        <linearGradient x1="0.00847114411%" y1="49.9891615%" x2="99.9909706%" y2="49.9891615%" id="linearGradient-11">
            <stop stop-color="#BDBFBF" offset="0%"></stop>
            <stop stop-color="#B5B7B7" offset="37.21%"></stop>
            <stop stop-color="#9EA1A2" offset="96.13%"></stop>
            <stop stop-color="#9C9FA0" offset="100%"></stop>
        </linearGradient>
        <polygon id="path-12" points="0.128498316 27.1433561 4.65874747 27.1433561 4.65874747 16.9602758 5.82070034 16.1125773 5.82070034 6.2504406 0.128498316 0.0648905174"></polygon>
        <linearGradient x1="-0.000878950908%" y1="49.9894762%" x2="99.9807502%" y2="49.9894762%" id="linearGradient-14">
            <stop stop-color="#BABBBE" offset="0%"></stop>
            <stop stop-color="#B6B7BA" offset="30.64%"></stop>
            <stop stop-color="#A9AAAD" offset="62.99%"></stop>
            <stop stop-color="#949699" offset="96.01%"></stop>
            <stop stop-color="#919396" offset="100%"></stop>
        </linearGradient>
        <polygon id="path-15" points="0.18202729 12.6275325 4.1917154 12.6275325 4.1917154 3.00562402 0.18202729 0.11972758"></polygon>
        <linearGradient x1="-0.00801804342%" y1="50.0418162%" x2="99.9880513%" y2="50.0418162%" id="linearGradient-17">
            <stop stop-color="#C0C2C3" offset="0%"></stop>
            <stop stop-color="#B8BABB" offset="29.28%"></stop>
            <stop stop-color="#A1A3A4" offset="75.63%"></stop>
            <stop stop-color="#929496" offset="100%"></stop>
        </linearGradient>
    </defs>
    <g id="Symbols" stroke="none" stroke-width="1" fill="none" fill-rule="evenodd">
        <g id="Navigation-/-Tablet-/-Signed-In" transform="translate(-325.000000, -8.000000)">
            <g id="Group-3" transform="translate(325.000000, 8.000000)">
                <g id="CREXi-logo-over-white-background2.22.16-RGB" transform="translate(0.500000, 0.000000)">
                    <g id="Clipped" transform="translate(94.518519, 0.000000)">
                        <mask id="mask-2" fill="white">
                            <use xlink:href="#path-1"></use>
                        </mask>
                        <g id="SVGID_1_"></g>
                        <polygon id="Rectangle-path" fill="url(#linearGradient-3)" fill-rule="nonzero" mask="url(#mask-2)" points="0.0100819753 0.00563414634 9.35215232 0.00563414634 9.35215232 33.1180244 0.0100819753 33.1180244"></polygon>
                    </g>
                    <g id="Clipped" transform="translate(89.362963, 17.926829)">
                        <mask id="mask-5" fill="white">
                            <use xlink:href="#path-4"></use>
                        </mask>
                        <g id="SVGID_4_"></g>
                        <polygon id="Rectangle-path" fill="url(#linearGradient-6)" fill-rule="nonzero" mask="url(#mask-5)" points="0.135762963 0.135219512 3.31960494 0.135219512 3.31960494 15.1917073 0.135762963 15.1917073"></polygon>
                    </g>
                    <g id="Group" transform="translate(85.925926, 24.756098)">
                        <g id="SVGID_7_-link" fill="url(#linearGradient-8)" fill-rule="nonzero">
                            <polygon id="SVGID_7_" points="0.0214814815 7.51519073 1.61272222 7.51519073 1.61272222 0.362549822 0.0214814815 0.094467207"></polygon>
                        </g>
                        <g id="Clipped">
                            <mask id="mask-10" fill="white">
                                <use xlink:href="#path-9"></use>
                            </mask>
                            <g id="SVGID_7_"></g>
                            <polygon id="Rectangle-path" fill="url(#linearGradient-11)" fill-rule="nonzero" mask="url(#mask-10)" points="0.0214814815 0.094467207 1.61272222 0.094467207 1.61272222 7.51519073 0.0214814815 7.51519073"></polygon>
                        </g>
                    </g>
                    <g id="Clipped" transform="translate(104.829630, 5.975610)">
                        <mask id="mask-13" fill="white">
                            <use xlink:href="#path-12"></use>
                        </mask>
                        <g id="SVGID_11_"></g>
                        <polygon id="Rectangle-path" fill="url(#linearGradient-14)" fill-rule="nonzero" mask="url(#mask-13)" points="0.128498316 0.0648905174 5.82015354 0.0648905174 5.82015354 27.1433561 0.128498316 27.1433561"></polygon>
                    </g>
                    <g id="Clipped" transform="translate(111.703704, 20.487805)">
                        <mask id="mask-16" fill="white">
                            <use xlink:href="#path-15"></use>
                        </mask>
                        <g id="SVGID_14_"></g>
                        <polygon id="Rectangle-path" fill="url(#linearGradient-17)" fill-rule="nonzero" mask="url(#mask-16)" points="0.18202729 0.11972758 4.1922807 0.11972758 4.1922807 12.6275325 0.18202729 12.6275325"></polygon>
                    </g>
                    <g id="Group" transform="translate(0.000000, 13.658537)" fill-rule="nonzero">
                        <polygon id="Rectangle-path" fill="#BABBBE" points="86.1921429 19.8965027 115.904714 19.8965027 115.904714 20.3787102 86.1921429 20.3787102"></polygon>
                        <path d="M13.9868036,5.67527585 C13.5575,5.14946729 13.0313571,4.74459989 12.4088929,4.46742144 C11.7833214,4.18453333 11.0619464,4.0433488 10.2458036,4.0433488 C9.42655357,4.0433488 8.66789286,4.20633388 7.971375,4.52348001 C7.27433929,4.84062614 6.66430357,5.28390403 6.15369643,5.85694712 C5.64360714,6.42635678 5.24278571,7.10528826 4.955375,7.89114626 C4.66641071,8.67804238 4.524,9.52930204 4.524,10.4459634 C4.524,11.3807918 4.66692857,12.2393183 4.955375,13.0127188 C5.24330357,13.7897528 5.63791071,14.4645318 6.14023214,15.0354986 C6.64203571,15.6069845 7.23498214,16.0492243 7.91544643,16.3668895 C8.59435714,16.6855928 9.32453571,16.8413111 10.1049464,16.8413111 C11.0003214,16.8413111 11.792125,16.6575635 12.4788036,16.2833207 C13.169625,15.909597 13.7377143,15.3858647 14.1804821,14.7100475 L17.8158393,17.4325213 C16.9748393,18.6097511 15.9142679,19.4812541 14.6294643,20.0376873 C13.3441429,20.6045016 12.0236071,20.8873897 10.6637143,20.8873897 C9.11842857,20.8873897 7.69794643,20.6403168 6.39346429,20.1575903 C5.09053571,19.6701922 3.96367857,18.9736127 3.01444643,18.0642182 C2.062625,17.1579381 1.32416071,16.0611627 0.794910714,14.7692205 C0.263589286,13.4788354 0,12.0389608 0,10.4459634 C0,8.85400398 0.263589286,7.41309129 0.795428571,6.12374435 C1.32467857,4.83128304 2.06314286,3.73346952 3.01496429,2.82563224 C3.96419643,1.9172759 5.09105357,1.21913917 6.39398214,0.733817352 C7.69846429,0.246419293 9.11894643,0.00505603635 10.6642321,0.00505603635 C11.2245536,0.00505603635 11.8055893,0.0538477484 12.4094107,0.159217084 C13.0163393,0.263548298 13.611875,0.426533379 14.1955,0.648172326 C14.7817143,0.872925638 15.3451429,1.1724237 15.8852679,1.54510933 C16.4279821,1.92246651 16.9095893,2.3776828 17.338375,2.92062036 L13.9868036,5.67527585 Z" id="Shape" fill="#111111"></path>
                        <path d="M20.1850357,0.507506858 L27.8374107,0.507506858 C28.8410179,0.507506858 29.7923214,0.605609343 30.6965,0.802333373 C31.5986071,0.998019282 32.3898929,1.33073723 33.0703571,1.78647259 C33.7492679,2.24636043 34.2868036,2.86196649 34.69125,3.6384814 C35.0889643,4.41499631 35.2919643,5.3835637 35.2919643,6.54262639 C35.2919643,7.94409046 34.9279107,9.14000646 34.2013571,10.1215504 C33.4758393,11.1062086 32.4173393,11.7311578 31.0180893,11.9912073 L36.0428571,20.3787102 L30.8238929,20.3787102 L26.6903571,12.4407139 L24.54125,12.4407139 L24.54125,20.3787102 L20.1845179,20.3787102 L20.1845179,0.507506858 L20.1850357,0.507506858 Z M24.54125,8.73513906 L27.1087857,8.73513906 C27.5008036,8.73513906 27.9125,8.71904818 28.3500893,8.68738547 C28.7902679,8.6645468 29.1853929,8.57838271 29.5365,8.43875537 C29.8922679,8.2954946 30.1874464,8.07697001 30.4178929,7.77747195 C30.6504107,7.47849295 30.7674464,7.05805373 30.7674464,6.51511617 C30.7674464,6.00903192 30.663875,5.60675983 30.4582857,5.30726176 C30.257875,5.00828276 29.9922143,4.78041509 29.6773571,4.62002531 C29.3635357,4.4627499 28.9994821,4.35322808 28.5877857,4.29768857 C28.1797143,4.24266813 27.7825179,4.21411979 27.3905,4.21411979 L24.54125,4.21411979 L24.54125,8.73513906 Z" id="Shape" fill="#111111"></path>
                        <polygon id="Shape" fill="#111111" points="38.443125 0.507506858 51.8753036 0.507506858 51.8753036 4.5473568 42.7993393 4.5473568 42.7993393 8.25656504 51.3724643 8.25656504 51.3724643 12.2990103 42.7993393 12.2990103 42.7993393 16.3398984 52.3760714 16.3398984 52.3760714 20.3787102 38.443125 20.3787102"></polygon>
                        <polygon id="Shape" fill="#111111" points="60.7824464 9.99645673 54.2496786 0.508025919 59.7213571 0.508025919 63.9356786 7.47070704 67.9848036 0.508025919 73.2622857 0.508025919 66.8693393 9.91236888 74.0168036 20.3787102 68.5446071 20.3787102 63.7124821 12.3825791 59.0212143 20.3787102 53.8576607 20.3787102"></polygon>
                        <polygon id="Rectangle-path" fill="#111111" points="75.55225 6.7383123 79.7411964 6.7383123 79.7411964 20.3781911 75.55225 20.3781911"></polygon>
                        <polygon id="Rectangle-path" fill="#111111" points="75.55225 0.507506858 79.7411964 0.507506858 79.7411964 4.10823139 75.55225 4.10823139"></polygon>
                    </g>
                </g>
            </g>
        </g>
    </g>
</svg>