<?xml version="1.0" encoding="UTF-8"?>
<svg width="110px" height="30px" viewBox="0 0 110 30" version="1.1" xmlns="http://www.w3.org/2000/svg" xmlns:xlink="http://www.w3.org/1999/xlink">
    <!-- Generator: Sketch 53.2 (72643) - https://sketchapp.com -->
    <title>Group 3</title>
    <desc>Created with Sketch.</desc>
    <g id="Desktop" stroke="none" stroke-width="1" fill="none" fill-rule="evenodd">
        <g id="Lease-PDP-Powered-By-CREXi" transform="translate(-1755.000000, -1016.000000)" fill="#333333" fill-rule="nonzero">
            <g id="Group-7" transform="translate(1660.000000, 1016.007107)">
                <g id="Group-3" transform="translate(95.000000, 0.000000)">
                    <path d="M19.2921429,7.97070899 C18.7,7.23157239 17.9742857,6.66244451 17.1157143,6.2728108 C16.2528571,5.87515093 15.2578571,5.67668583 14.1321429,5.67668583 C13.0021429,5.67668583 11.9557143,5.90579628 10.995,6.35161312 C10.0335714,6.79742997 9.19214286,7.42055204 8.48785714,8.22608689 C7.78428571,9.02651418 7.23142857,9.98089787 6.835,11.0855897 C6.43642857,12.1917408 6.24,13.3883687 6.24,14.6769326 C6.24,15.9910343 6.43714286,17.1978772 6.835,18.2850574 C7.23214286,19.3773452 7.77642857,20.3258916 8.46928571,21.1285079 C9.16142857,21.9318538 9.97928571,22.5535166 10.9178571,23.0000631 C11.8542857,23.4480689 12.8614286,23.6669642 13.9378571,23.6669642 C15.1728571,23.6669642 16.265,23.4086677 17.2121429,22.8825892 C18.165,22.3572404 18.9485714,21.6210224 19.5592857,20.6710166 L24.5735714,24.4980368 C23.4135714,26.1528856 21.9507143,27.3779699 20.1785714,28.1601559 C18.4057143,28.9569349 16.5842857,29.3545948 14.7085714,29.3545948 C12.5771429,29.3545948 10.6178571,29.0072808 8.81857143,28.3287053 C7.02142857,27.6435629 5.46714286,26.6643711 4.15785714,25.3860223 C2.845,24.1120514 1.82642857,22.5702985 1.09642857,20.7541969 C0.363571429,18.9402841 7.26529947e-13,16.9162319 7.26529947e-13,14.6769326 C7.26529947e-13,12.4390925 0.363571429,10.413581 1.09714286,8.60112757 C1.82714286,6.78429625 2.84571429,5.2410841 4.15857143,3.96492426 C5.46785714,2.68803478 7.02214286,1.706654 8.81928571,1.02443019 C10.6185714,0.339287777 12.5778571,1.95399252e-14 14.7092857,1.95399252e-14 C15.4821429,1.95399252e-14 16.2835714,0.0685872066 17.1164286,0.216706387 C17.9535714,0.363366265 18.775,0.592476721 19.58,0.904037755 C20.3885714,1.2199767 21.1657143,1.6409854 21.9107143,2.16487492 C22.6592857,2.69533129 23.3235714,3.33523534 23.915,4.09845042 L19.2921429,7.97070899 Z" id="Shape"></path>
                    <path d="M27.8414286,0.706302298 L38.3964286,0.706302298 C39.7807143,0.706302298 41.0928571,0.844206362 42.34,1.12074414 C43.5842857,1.39582262 44.6757143,1.863529 45.6142857,2.50416269 C46.5507143,3.1506336 47.2921429,4.01599984 47.85,5.10755794 C48.3985714,6.19911604 48.6785714,7.56064505 48.6785714,9.18995604 C48.6785714,11.1600141 48.1764286,12.8411303 47.1742857,14.2209006 C46.1735714,15.6050488 44.7135714,16.4835488 42.7835714,16.849104 L49.7142857,28.6395367 L42.5157143,28.6395367 L36.8142857,17.4809819 L33.85,17.4809819 L33.85,28.6395367 L27.8407143,28.6395367 L27.8407143,0.706302298 L27.8414286,0.706302298 Z M33.85,12.2720024 L37.3914286,12.2720024 C37.9321429,12.2720024 38.5,12.2493832 39.1035714,12.2048745 C39.7107143,12.1727699 40.2557143,12.0516478 40.74,11.8553716 C41.2307143,11.6539879 41.6378571,11.3468048 41.9557143,10.9257961 C42.2764286,10.505517 42.4378571,9.91449961 42.4378571,9.15128453 C42.4378571,8.43987467 42.295,7.87439504 42.0114286,7.45338634 C41.735,7.03310728 41.3685714,6.71279044 40.9342857,6.48732824 C40.5014286,6.26624394 39.9992857,6.11228755 39.4314286,6.03421488 C38.8685714,5.95687186 38.3207143,5.91674105 37.78,5.91674105 L33.85,5.91674105 L33.85,12.2720024 Z" id="Shape"></path>
                    <polygon id="Shape" points="53.025 0.706302298 71.5521429 0.706302298 71.5521429 6.38517708 59.0335714 6.38517708 59.0335714 11.5992641 70.8585714 11.5992641 70.8585714 17.2817871 59.0335714 17.2817871 59.0335714 22.9621212 72.2428571 22.9621212 72.2428571 28.6395367 53.025 28.6395367"></polygon>
                    <polygon id="Shape" points="83.8378571 14.0450547 74.8271429 0.707031949 82.3742857 0.707031949 88.1871429 10.4945723 93.7721429 0.707031949 101.051429 0.707031949 92.2335714 13.9268512 102.092143 28.6395367 94.5442857 28.6395367 87.8792857 17.3992609 81.4085714 28.6395367 74.2864286 28.6395367"></polygon>
                    <polygon id="Rectangle-path" points="104.21 9.46503451 109.987857 9.46503451 109.987857 28.638807 104.21 28.638807"></polygon>
                    <polygon id="Rectangle-path" points="104.21 0.706302298 109.987857 0.706302298 109.987857 5.76789222 104.21 5.76789222"></polygon>
                </g>
            </g>
        </g>
    </g>
</svg>